<svg width="177" height="193" viewBox="0 0 177 193" fill="none" xmlns="http://www.w3.org/2000/svg">
<path d="M2.44417 0.762676L1.39554 1.47766V31.6498C1.39554 58.5807 1.49087 61.9173 2.15818 62.1556C2.92083 62.4416 7.16304 58.533 22.9879 42.8988L30.4714 35.463V18.7325V1.95431L29.2321 1.001C28.0404 0.0476952 27.3731 3.05176e-05 15.7428 3.05176e-05C5.44709 3.05176e-05 3.34982 0.0953636 2.44417 0.762676ZM17.0298 12.0117C17.4111 12.393 17.6017 14.5379 17.6017 18.4465C17.6017 23.5467 17.5064 24.3093 16.7438 24.7383C16.2194 25.0243 15.5998 25.0243 15.0755 24.7383C14.3605 24.3093 14.2652 23.4514 14.2652 18.1605C14.2652 14.8239 14.4082 11.9164 14.5988 11.7734C15.0755 11.249 16.4101 11.392 17.0298 12.0117ZM17.5064 37.2743C17.3157 38.5136 16.0765 39.3239 15.0278 38.9426C14.0268 38.5613 14.0268 36.4163 15.0755 35.7967C16.2671 35.177 17.6971 36.035 17.5064 37.2743Z" fill="url(#paint0_linear_26_55)"/>
<path d="M72.2738 0.810379C71.5589 1.62068 71.4635 5.14792 71.3682 43.1372L71.2252 84.606L69.4616 88.3239C67.269 92.8997 63.8848 96.3316 59.5472 98.3812C56.6396 99.7635 56.1153 99.8589 50.9675 99.8589C45.8196 99.8589 45.2953 99.7635 42.2924 98.3336C37.0968 95.9027 33.5696 92.0418 31.4723 86.6079C30.8527 84.9396 30.662 81.3171 30.4714 63.6332L30.233 42.6605H28.9937C28.0404 42.6605 24.9422 45.4251 14.5988 55.4825L1.39554 68.3044V76.7412C1.39554 85.9406 2.06285 90.9931 3.9218 96.5223C10.4996 115.779 27.9451 128.935 48.3459 129.936C73.3701 131.223 95.4868 113.491 99.8244 88.7052C100.396 85.5116 100.539 79.3151 100.539 57.6751C100.539 34.7957 100.635 30.5535 101.207 30.0769C101.731 29.6479 105.783 29.5526 116.603 29.6479L131.331 29.7909L134.954 31.6022C145.774 36.9407 148.538 49.572 141.007 59.1527C139.005 61.7266 135.526 63.7286 131.283 64.8249C129.186 65.3492 127.327 65.9688 127.089 66.2072C126.898 66.3978 126.565 67.7801 126.422 69.1624L126.183 71.784L134.858 80.4591C140.197 85.7976 143.867 89.1342 144.439 89.1342C145.964 89.1342 151.065 86.7986 154.449 84.5583C157.833 82.318 163.41 76.8842 165.888 73.4523C168.129 70.3064 171.418 63.1566 172.609 58.8667C173.467 55.6731 173.658 53.7189 173.658 46.9504C173.706 39.8483 173.563 38.3706 172.609 35.0817C167.747 18.2559 154.163 5.33858 136.86 1.09637C134.096 0.429062 129.425 0.286057 103.399 0.143066C74.3711 -0.0475922 73.0365 6.10352e-05 72.2738 0.810379ZM118.319 13.6323C119.367 14.0137 119.367 16.0156 118.366 16.3969C117.937 16.5399 110.883 16.6829 102.637 16.6829H87.7174L87.5744 24.1187C87.4314 30.5059 87.3361 31.6498 86.6211 32.0788C86.0491 32.4601 85.6201 32.4125 85.0958 31.9835C83.9995 31.0778 83.9518 15.2053 85.0005 14.1567C85.5725 13.5847 88.48 13.4417 101.636 13.394C110.406 13.3464 117.89 13.4417 118.319 13.6323ZM135.859 14.5856C139.291 15.6343 143.867 17.9699 144.248 18.8755C144.391 19.3045 144.201 19.9242 143.819 20.3055C143.247 20.9251 142.675 20.7821 139.577 19.3522C137.623 18.4465 135.001 17.4456 133.762 17.1596C131.093 16.4446 130.187 15.5866 131.045 14.538C131.808 13.6323 132.618 13.6323 135.859 14.5856ZM155.211 28.2179C156.641 29.8862 158.024 32.5078 159.358 36.178C160.598 39.6576 160.598 40.7062 159.263 41.2306C158.214 41.6119 157.547 40.7062 156.641 37.6557C156.212 36.178 154.973 33.5564 153.877 31.7928C152.352 29.1712 152.066 28.4086 152.542 27.8366C153.305 26.8833 154.068 26.9786 155.211 28.2179ZM87.5744 50.6683L87.4314 56.9601H86.0014H84.5715L84.4285 50.7636C84.3332 45.4251 84.4285 44.5195 85.0958 43.9951C85.6678 43.5662 86.1444 43.5662 86.8118 43.8998C87.6221 44.3288 87.6697 44.9008 87.5744 50.6683ZM159.597 53.8142C160.502 54.3862 160.073 56.6741 158.262 61.107C156.451 65.3969 154.544 67.8755 153.353 67.4465C152.161 66.9698 152.304 65.8259 153.924 62.8706C154.687 61.4406 155.783 58.9144 156.355 57.1984C156.927 55.4825 157.499 53.9572 157.595 53.7189C157.881 53.2899 158.786 53.2899 159.597 53.8142ZM17.3634 69.3054C17.5064 69.8297 17.5541 72.785 17.5064 75.7879L17.3634 81.2694H15.9335H14.5035L14.3605 75.0729C14.2652 69.7821 14.3605 68.7811 15.0278 68.3044C16.0288 67.5895 17.0774 68.0185 17.3634 69.3054ZM87.5744 74.5963C87.6697 79.9348 87.5744 80.8404 86.9071 81.3647C86.3351 81.7937 85.8585 81.7937 85.2388 81.4601C84.4285 81.0311 84.3332 80.3638 84.3332 74.8823C84.3332 71.5457 84.4762 68.6381 84.6668 68.4474C84.8575 68.2568 85.5725 68.1614 86.2398 68.2568L87.4314 68.3998L87.5744 74.5963ZM20.5093 95.426C21.3196 97.0943 22.8449 99.5252 23.8459 100.86C25.9432 103.577 26.0862 104.149 24.8945 104.816C23.6076 105.483 22.6543 104.721 20.3663 101.194C17.3634 96.5223 16.3624 94.0914 17.1251 93.1857C18.1737 91.8988 18.984 92.4231 20.5093 95.426ZM84.3332 93.1857C85.1911 94.1867 83.9518 97.2373 80.9489 101.479C78.5657 104.911 77.4217 105.579 76.2301 104.149C75.6104 103.386 75.7057 103.195 78.0413 100.145C78.8993 98.9532 80.2816 96.7606 81.0443 95.2353C82.4742 92.4231 83.2845 91.8988 84.3332 93.1857ZM37.2398 111.013C39.1465 111.775 41.6727 112.681 42.8643 113.014C44.485 113.539 45.057 113.968 45.1523 114.778C45.2476 115.398 45.0093 115.97 44.5326 116.113C43.0073 116.732 33.236 113.3 32.2827 111.871C31.9013 111.299 32.664 109.63 33.3313 109.63C33.522 109.63 35.2856 110.25 37.2398 111.013ZM68.8419 111.06C68.8419 112.586 66.3633 114.015 61.3108 115.35C57.4023 116.399 56.4013 116.351 55.877 115.112C55.448 113.968 56.163 113.539 59.9762 112.49C61.8828 111.918 64.2661 111.108 65.2194 110.584C67.5073 109.344 68.8419 109.535 68.8419 111.06Z" fill="url(#paint1_linear_26_55)"/>
<path d="M104.162 57.4368C103.685 58.7237 103.781 94.711 104.257 95.6643C104.543 96.141 112.36 104.101 121.607 113.3L138.481 130.126H156.165C166.508 130.126 174.373 129.936 175.088 129.65C175.946 129.364 176.327 128.839 176.327 128.124C176.28 126.647 106.879 56.7218 105.449 56.7218C104.877 56.7218 104.353 57.0554 104.162 57.4368ZM117.985 86.8462C122.465 91.2315 123.085 92.3278 121.75 93.4241C121.131 93.9484 120.273 93.2811 116.269 89.3248C113.647 86.7509 111.502 84.4153 111.502 84.1293C111.502 83.5097 112.456 82.461 113.075 82.461C113.314 82.461 115.554 84.4153 117.985 86.8462ZM132.475 101.337C133.667 102.433 134.382 103.481 134.382 104.196C134.382 106.055 132.427 105.674 130.378 103.434C128.471 101.337 128.519 101.432 128.948 100.383C129.425 99.1916 130.425 99.4776 132.475 101.337ZM146.012 114.826C149.778 118.591 150.445 120.117 148.491 120.498C147.251 120.736 139.482 112.919 139.911 111.871C140.531 110.202 142.246 111.013 146.012 114.826Z" fill="url(#paint2_linear_26_55)"/>
<path d="M106.259 152.1C104.162 152.958 103.399 153.959 103.399 156.056C103.399 158.487 104.353 159.917 106.45 160.632C109.405 161.586 112.217 159.536 112.217 156.295C112.217 153.244 109.071 151.004 106.259 152.1Z" fill="url(#paint3_linear_26_55)"/>
<path d="M69.7953 153.244C67.126 155.866 69.271 160.632 73.1319 160.632C74.4188 160.632 75.2291 160.251 76.2778 159.25C78.0414 157.486 78.0891 155.484 76.4208 153.53C75.3721 152.291 74.8478 152.052 73.0842 152.052C71.4636 152.052 70.6533 152.338 69.7953 153.244Z" fill="url(#paint4_linear_26_55)"/>
<path d="M138.338 152.863C137.861 153.006 137.718 155.008 137.718 160.394V167.734L135.287 166.257C131.045 163.587 125.468 163.873 121.321 166.876C115.173 171.357 113.981 181.653 118.938 188.135C122.751 193.14 130.664 194.331 135.669 190.709L137.48 189.374L137.957 190.852C138.386 192.187 138.624 192.33 140.674 192.473C141.913 192.568 143.343 192.377 143.915 192.091C144.868 191.615 144.868 191.186 144.868 172.644C144.868 158.535 144.725 153.53 144.296 153.101C143.724 152.529 139.53 152.386 138.338 152.863ZM133.905 171.976C135.907 173.025 137.718 176.266 137.718 178.745C137.671 183.13 134.525 186.371 130.235 186.371C125.945 186.371 122.942 183.178 122.942 178.602C122.942 175.408 124.801 172.358 127.232 171.452C128.805 170.88 132.332 171.166 133.905 171.976Z" fill="url(#paint5_linear_26_55)"/>
<path d="M0.489918 154.626C0.0132654 155.198 -0.0820652 158.44 0.0609307 168.354L0.203927 181.367L1.77688 184.56C3.5405 188.135 5.20878 189.803 9.02201 191.567C11.2146 192.568 12.3109 192.806 15.7905 192.759C19.556 192.759 20.2234 192.616 23.1786 191.138C26.6105 189.327 29.2798 186.419 30.4714 183.13C30.948 181.891 31.1864 177.458 31.2817 168.211C31.4724 157.057 31.377 155.008 30.8051 154.483C30.3284 154.15 28.9461 153.959 27.0395 154.054L24.0366 154.197L23.7983 167.305C23.5599 179.365 23.4646 180.556 22.6066 182.082C19.7944 186.943 11.8819 186.943 8.87901 182.082C7.87804 180.509 7.83038 179.746 7.59205 167.305L7.35372 154.197L4.20781 154.054C1.87221 153.959 0.918906 154.102 0.489918 154.626Z" fill="url(#paint6_linear_26_55)"/>
<path d="M159.644 164.684C152.733 166.59 148.491 173.12 149.349 180.509C150.207 187.801 155.259 192.473 162.743 192.949C166.699 193.188 169.13 192.616 172.18 190.661C174.993 188.898 175.326 188.087 173.896 186.562C171.942 184.465 171.227 184.274 169.368 185.466C164.697 188.326 159.215 187.229 156.975 182.94C156.594 182.225 156.308 181.557 156.308 181.414C156.308 181.271 160.884 181.081 166.461 181.033L176.566 180.89L176.709 177.792C176.899 173.978 175.898 171.214 173.372 168.449C170.083 164.874 164.554 163.349 159.644 164.684ZM166.842 171.738C168.462 172.834 170.083 175.122 169.606 175.647C169.416 175.79 166.365 175.837 162.79 175.79L156.308 175.647L157.166 174.026C158.929 170.737 163.696 169.641 166.842 171.738Z" fill="url(#paint7_linear_26_55)"/>
<path d="M48.1076 165.399C46.9636 165.971 45.5813 166.733 45.1523 167.162C44.342 167.877 44.2943 167.83 44.2943 166.4V164.874L41.1008 165.017L37.8595 165.16L37.7165 178.221C37.6212 187.42 37.7642 191.472 38.1455 191.901C38.8128 192.711 42.912 192.806 43.7224 191.996C44.1037 191.615 44.2943 189.374 44.2943 185.227C44.342 175.361 45.1523 172.977 48.9655 171.595C50.7292 170.976 51.2058 170.976 52.9218 171.595C56.2583 172.787 56.6873 174.169 56.6873 183.511C56.6873 189.041 56.878 191.615 57.2593 191.996C58.1173 192.854 62.1688 192.711 63.1221 191.758C63.8371 191.09 63.9324 189.851 63.7894 181.605C63.5988 172.691 63.5511 172.167 62.3595 169.927C61.6445 168.497 60.3575 166.972 59.1182 166.114C56.4013 164.207 51.3965 163.873 48.1076 165.399Z" fill="url(#paint8_linear_26_55)"/>
<path d="M94.6289 164.922C93.8662 165.16 92.4363 166.018 91.3876 166.829L89.5764 168.306V166.59V164.874L86.3828 165.017L83.1415 165.16V178.507V191.853L85.4771 192.234C87.2408 192.52 88.0511 192.425 88.909 191.853C90.0053 191.138 90.053 190.947 90.053 184.417C90.053 177.077 90.4343 175.599 92.8176 173.359C93.7709 172.453 94.9625 171.929 96.2972 171.738C99.8721 171.261 100.11 170.975 99.9674 167.639L99.8244 164.684L97.9178 164.588C96.8691 164.541 95.3915 164.684 94.6289 164.922Z" fill="url(#paint9_linear_26_55)"/>
<path d="M69.8906 165.208C69.2709 165.828 69.5093 191.376 70.1289 191.996C70.8916 192.758 74.8478 192.711 75.8964 191.948C76.6591 191.424 76.7067 190.185 76.6114 178.268L76.4684 165.16L73.3702 165.017C71.6542 164.922 70.0812 165.017 69.8906 165.208Z" fill="url(#paint10_linear_26_55)"/>
<path d="M104.114 165.971C103.971 166.59 103.876 172.596 103.971 179.365C104.114 192.854 104.067 192.568 107.07 192.568C107.88 192.568 109.119 192.377 109.834 192.091L111.026 191.615L110.93 178.411L110.787 165.16L107.594 165.017C104.591 164.874 104.353 164.97 104.114 165.971Z" fill="url(#paint11_linear_26_55)"/>
<defs>
<linearGradient id="paint0_linear_26_55" x1="16.4491" y1="25.2868" x2="51.7867" y2="-1.14996" gradientUnits="userSpaceOnUse">
<stop stop-color="white"/>
<stop offset="1" stop-color="#FDD35C"/>
</linearGradient>
<linearGradient id="paint1_linear_26_55" x1="90.586" y1="52.9059" x2="149.994" y2="-73.0723" gradientUnits="userSpaceOnUse">
<stop stop-color="white"/>
<stop offset="1" stop-color="#FDD35C"/>
</linearGradient>
<linearGradient id="paint2_linear_26_55" x1="141.373" y1="86.578" x2="180.687" y2="24.4838" gradientUnits="userSpaceOnUse">
<stop stop-color="white"/>
<stop offset="1" stop-color="#FDD35C"/>
</linearGradient>
<linearGradient id="paint3_linear_26_55" x1="107.965" y1="155.498" x2="112.839" y2="147.901" gradientUnits="userSpaceOnUse">
<stop stop-color="white"/>
<stop offset="1" stop-color="#FDD35C"/>
</linearGradient>
<linearGradient id="paint4_linear_26_55" x1="73.283" y1="155.542" x2="77.7473" y2="148.027" gradientUnits="userSpaceOnUse">
<stop stop-color="white"/>
<stop offset="1" stop-color="#FDD35C"/>
</linearGradient>
<linearGradient id="paint5_linear_26_55" x1="130.877" y1="168.94" x2="154.476" y2="141.723" gradientUnits="userSpaceOnUse">
<stop stop-color="white"/>
<stop offset="1" stop-color="#FDD35C"/>
</linearGradient>
<linearGradient id="paint6_linear_26_55" x1="16.2418" y1="169.783" x2="38.446" y2="141.019" gradientUnits="userSpaceOnUse">
<stop stop-color="white"/>
<stop offset="1" stop-color="#FDD35C"/>
</linearGradient>
<linearGradient id="paint7_linear_26_55" x1="163.473" y1="175.917" x2="179.11" y2="152.035" gradientUnits="userSpaceOnUse">
<stop stop-color="white"/>
<stop offset="1" stop-color="#FDD35C"/>
</linearGradient>
<linearGradient id="paint8_linear_26_55" x1="51.2309" y1="175.878" x2="66.6607" y2="152.922" gradientUnits="userSpaceOnUse">
<stop stop-color="white"/>
<stop offset="1" stop-color="#FDD35C"/>
</linearGradient>
<linearGradient id="paint9_linear_26_55" x1="91.8684" y1="175.891" x2="108.339" y2="159.923" gradientUnits="userSpaceOnUse">
<stop stop-color="white"/>
<stop offset="1" stop-color="#FDD35C"/>
</linearGradient>
<linearGradient id="paint10_linear_26_55" x1="73.2141" y1="176.191" x2="84.7417" y2="171.429" gradientUnits="userSpaceOnUse">
<stop stop-color="white"/>
<stop offset="1" stop-color="#FDD35C"/>
</linearGradient>
<linearGradient id="paint11_linear_26_55" x1="107.605" y1="176.192" x2="119.107" y2="171.464" gradientUnits="userSpaceOnUse">
<stop stop-color="white"/>
<stop offset="1" stop-color="#FDD35C"/>
</linearGradient>
</defs>
</svg>
